<svg width="39" height="39" viewBox="0 0 39 39" fill="none" xmlns="http://www.w3.org/2000/svg">
<path fill-rule="evenodd" clip-rule="evenodd" d="M0.375 1.96875C0.375 1.54606 0.542913 1.14068 0.841799 0.841799C1.14068 0.542913 1.54606 0.375 1.96875 0.375H33.8438C34.2664 0.375 34.6718 0.542913 34.9707 0.841799C35.2696 1.14068 35.4375 1.54606 35.4375 1.96875V8.34375C35.4374 8.708 35.3125 9.06124 35.0837 9.34463L23.8478 23.2517V37.0312C23.848 37.2879 23.7863 37.5408 23.6679 37.7685C23.5494 37.9961 23.3777 38.1918 23.1674 38.3389C22.9571 38.486 22.7144 38.5801 22.4599 38.6133C22.2055 38.6464 21.9467 38.6177 21.7058 38.5294L13.0103 35.3419C12.7034 35.2295 12.4386 35.0255 12.2515 34.7575C12.0645 34.4895 11.9644 34.1705 11.9648 33.8438V23.2517L0.728813 9.34463C0.499965 9.06124 0.375096 8.708 0.375 8.34375V1.96875ZM38.625 24.2812V27.4688H25.875V24.2812H38.625ZM35.4375 33.8438H25.875V30.6562H35.4375V33.8438Z" fill="#ff8904" fill-opacity="0.25"/>
</svg>
