<svg width="96" height="96" viewBox="0 0 96 96" fill="none" xmlns="http://www.w3.org/2000/svg">
<rect x="12" y="24" width="72" height="48" rx="8" stroke="#343434" stroke-width="6"/>
<path d="M24 36H32" stroke="#ff8904" stroke-width="8" stroke-linecap="round"/>
<path d="M63.9999 60H71.9999" stroke="#ff8904" stroke-width="8" stroke-linecap="round"/>
<path d="M46.7446 61.6V33.4H49.7446V61.6H46.7446ZM47.8246 58.36C46.1446 58.36 44.5346 58.14 42.9946 57.7C41.4546 57.24 40.2146 56.65 39.2746 55.93L40.9246 52.27C41.8246 52.91 42.8846 53.44 44.1046 53.86C45.3446 54.26 46.5946 54.46 47.8546 54.46C48.8146 54.46 49.5846 54.37 50.1646 54.19C50.7646 53.99 51.2046 53.72 51.4846 53.38C51.7646 53.04 51.9046 52.65 51.9046 52.21C51.9046 51.65 51.6846 51.21 51.2446 50.89C50.8046 50.55 50.2246 50.28 49.5046 50.08C48.7846 49.86 47.9846 49.66 47.1046 49.48C46.2446 49.28 45.3746 49.04 44.4946 48.76C43.6346 48.48 42.8446 48.12 42.1246 47.68C41.4046 47.24 40.8146 46.66 40.3546 45.94C39.9146 45.22 39.6946 44.3 39.6946 43.18C39.6946 41.98 40.0146 40.89 40.6546 39.91C41.3146 38.91 42.2946 38.12 43.5946 37.54C44.9146 36.94 46.5646 36.64 48.5446 36.64C49.8646 36.64 51.1646 36.8 52.4446 37.12C53.7246 37.42 54.8546 37.88 55.8346 38.5L54.3346 42.19C53.3546 41.63 52.3746 41.22 51.3946 40.96C50.4146 40.68 49.4546 40.54 48.5146 40.54C47.5746 40.54 46.8046 40.65 46.2046 40.87C45.6046 41.09 45.1746 41.38 44.9146 41.74C44.6546 42.08 44.5246 42.48 44.5246 42.94C44.5246 43.48 44.7446 43.92 45.1846 44.26C45.6246 44.58 46.2046 44.84 46.9246 45.04C47.6446 45.24 48.4346 45.44 49.2946 45.64C50.1746 45.84 51.0446 46.07 51.9046 46.33C52.7846 46.59 53.5846 46.94 54.3046 47.38C55.0246 47.82 55.6046 48.4 56.0446 49.12C56.5046 49.84 56.7346 50.75 56.7346 51.85C56.7346 53.03 56.4046 54.11 55.7446 55.09C55.0846 56.07 54.0946 56.86 52.7746 57.46C51.4746 58.06 49.8246 58.36 47.8246 58.36Z" fill="#ff8904"/>
</svg>
